<svg width="26" height="26" viewBox="0 0 26 26" fill="none" xmlns="http://www.w3.org/2000/svg">
<circle cx="13" cy="13" r="13" fill="#086167"/>
<path d="M15.28 16.7989C15.14 16.7869 15.02 16.8467 14.9533 16.9484C14.4667 17.7262 14.06 18.3364 13.8533 18.6475C13.68 18.9167 13.3467 19.0842 13 19.0842C12.6533 19.0842 12.32 18.9167 12.14 18.6475C11.9333 18.3364 11.5333 17.7262 11.04 16.9484C10.9733 16.8467 10.8533 16.7869 10.7133 16.7989C9.61333 16.9066 6 17.3672 6 18.785C6 20.161 9.52 20.8789 13 20.8789C16.48 20.8789 20 20.161 20 18.785C20 17.3672 16.3867 16.9066 15.28 16.7989Z" fill="white"/>
<path d="M18.0101 9.90386C18.0101 12.6968 12.9997 19.3003 12.9997 19.3003C12.9997 19.3003 7.98926 12.6968 7.98926 9.90386C7.98926 7.11095 10.2328 4.84424 12.9997 4.84424C15.7666 4.84424 18.0101 7.11095 18.0101 9.90386Z" fill="white" stroke="#086167" stroke-miterlimit="10" stroke-linecap="round" stroke-linejoin="round"/>
<path d="M12.9998 12.0688C14.2297 12.0688 15.2267 11.0334 15.2267 9.7561C15.2267 8.47881 14.2297 7.44336 12.9998 7.44336C11.77 7.44336 10.7729 8.47881 10.7729 9.7561C10.7729 11.0334 11.77 12.0688 12.9998 12.0688Z" fill="#086167" stroke="#086167" stroke-miterlimit="10" stroke-linecap="round" stroke-linejoin="round"/>
</svg>
