<svg width="26" height="26" viewBox="0 0 26 26" fill="none" xmlns="http://www.w3.org/2000/svg">
<circle cx="12.8655" cy="12.8655" r="12.8655" fill="#086167"/>
<path d="M13.0038 8.95684C10.7324 8.95684 8.90024 10.7604 8.90024 12.9963C8.90024 15.2322 10.7324 17.0357 13.0038 17.0357C15.2752 17.0357 17.1074 15.2322 17.1074 12.9963C17.1074 10.7604 15.2752 8.95684 13.0038 8.95684ZM13.0038 15.6225C11.536 15.6225 10.336 14.4447 10.336 12.9963C10.336 11.5479 11.5324 10.3701 13.0038 10.3701C14.4752 10.3701 15.6717 11.5479 15.6717 12.9963C15.6717 14.4447 14.4717 15.6225 13.0038 15.6225ZM18.2324 8.7916C18.2324 9.31543 17.8038 9.73379 17.2752 9.73379C16.7431 9.73379 16.3181 9.31191 16.3181 8.7916C16.3181 8.27129 16.7467 7.84941 17.2752 7.84941C17.8038 7.84941 18.2324 8.27129 18.2324 8.7916ZM20.9502 9.74785C20.8895 8.48574 20.5967 7.36777 19.6574 6.44668C18.7217 5.52559 17.586 5.2373 16.3038 5.17402C14.9824 5.1002 11.0217 5.1002 9.70024 5.17402C8.42167 5.23379 7.28595 5.52207 6.34667 6.44316C5.40738 7.36426 5.11809 8.48223 5.05381 9.74434C4.97881 11.0451 4.97881 14.9439 5.05381 16.2447C5.11452 17.5068 5.40738 18.6248 6.34667 19.5459C7.28595 20.467 8.41809 20.7553 9.70024 20.8186C11.0217 20.8924 14.9824 20.8924 16.3038 20.8186C17.586 20.7588 18.7217 20.4705 19.6574 19.5459C20.5931 18.6248 20.886 17.5068 20.9502 16.2447C21.0252 14.9439 21.0252 11.0486 20.9502 9.74785ZM19.2431 17.6404C18.9645 18.3295 18.4252 18.8603 17.7217 19.1381C16.6681 19.5494 14.1681 19.4545 13.0038 19.4545C11.8395 19.4545 9.33595 19.5459 8.28595 19.1381C7.58595 18.8639 7.04667 18.333 6.76452 17.6404C6.34667 16.6033 6.44309 14.1424 6.44309 12.9963C6.44309 11.8502 6.35024 9.38574 6.76452 8.35215C7.04309 7.66309 7.58238 7.13223 8.28595 6.85449C9.33952 6.44316 11.8395 6.53809 13.0038 6.53809C14.1681 6.53809 16.6717 6.44668 17.7217 6.85449C18.4217 7.12871 18.961 7.65957 19.2431 8.35215C19.661 9.38926 19.5645 11.8502 19.5645 12.9963C19.5645 14.1424 19.661 16.6068 19.2431 17.6404Z" fill="white"/>
</svg>
