<svg width="13" height="13" viewBox="0 0 13 13" fill="none" xmlns="http://www.w3.org/2000/svg">
<path d="M7.85409 0.541667C11.0337 0.541667 12.4583 2.85458 12.4583 5.14583C12.4583 5.2975 12.5774 5.41667 12.7291 5.41667C12.8808 5.41667 12.9999 5.2975 12.9999 5.14583C12.9999 2.58375 11.4074 0 7.85409 0C7.70242 0 7.58325 0.119167 7.58325 0.270833C7.58325 0.4225 7.70242 0.541667 7.85409 0.541667Z" fill="white"/>
<path d="M7.85409 3.25016C9.4195 3.25016 9.74992 4.27933 9.74992 5.146C9.74992 5.29766 9.86909 5.41683 10.0208 5.41683C10.1724 5.41683 10.2916 5.29766 10.2916 5.146C10.2916 3.59683 9.40325 2.7085 7.85409 2.7085C7.70242 2.7085 7.58325 2.82766 7.58325 2.97933C7.58325 3.131 7.70242 3.25016 7.85409 3.25016Z" fill="white"/>
<path d="M12.0521 8.66667C11.2288 8.66667 10.1292 8.40125 9.44667 8.17375C9.11625 8.06 8.71 8.16292 8.50958 8.37417L7.02 9.43583C5.30292 8.52583 4.20875 7.43708 3.30958 5.73625L4.59333 4.40375C4.84792 4.14917 4.93458 3.78083 4.82625 3.43417C4.50125 2.4375 4.33333 1.60333 4.33333 0.947917C4.33333 0.427917 3.90542 0 3.38542 0H0.947917C0.427917 0 0 0.427917 0 0.947917C0 7.48042 5.51958 13 12.0521 13C12.5721 13 13 12.5721 13 12.0521V9.61458C13 9.09458 12.5721 8.66667 12.0521 8.66667Z" fill="white"/>
</svg>
