<svg width="26" height="26" viewBox="0 0 26 26" fill="none" xmlns="http://www.w3.org/2000/svg">
<path d="M13 0C5.81855 0 0 5.81855 0 13C0 20.1815 5.81855 26 13 26C20.1815 26 26 20.1815 26 13C26 5.81855 20.1815 0 13 0ZM19.3847 8.90605L17.2512 18.9601C17.094 19.673 16.6694 19.846 16.077 19.5105L12.827 17.1149L11.2597 18.6246C11.0867 18.7976 10.9399 18.9444 10.6044 18.9444L10.8351 15.6367L16.8581 10.1956C17.1202 9.96492 16.8004 9.83387 16.4544 10.0645L9.01089 14.7508L5.80282 13.7496C5.10564 13.5294 5.08992 13.0524 5.9496 12.7169L18.4831 7.88387C19.0649 7.67419 19.5734 8.0254 19.3847 8.90605Z" fill="#086167"/>
</svg>
