<svg width="26" height="26" viewBox="0 0 26 26" fill="none" xmlns="http://www.w3.org/2000/svg">
<circle cx="12.8655" cy="12.8655" r="12.8655" fill="#086167"/>
<path d="M18.6036 7.325C17.1071 5.825 15.1143 5 12.9964 5C8.625 5 5.06786 8.55714 5.06786 12.9286C5.06786 14.325 5.43214 15.6893 6.125 16.8929L5 21L9.20357 19.8964C10.3607 20.5286 11.6643 20.8607 12.9929 20.8607H12.9964C17.3643 20.8607 21 17.3036 21 12.9321C21 10.8143 20.1 8.825 18.6036 7.325ZM12.9964 19.525C11.8107 19.525 10.65 19.2071 9.63929 18.6071L9.4 18.4643L6.90714 19.1179L7.57143 16.6857L7.41429 16.4357C6.75357 15.3857 6.40714 14.175 6.40714 12.9286C6.40714 9.29643 9.36429 6.33929 13 6.33929C14.7607 6.33929 16.4143 7.025 17.6571 8.27143C18.9 9.51786 19.6643 11.1714 19.6607 12.9321C19.6607 16.5679 16.6286 19.525 12.9964 19.525ZM16.6107 14.5893C16.4143 14.4893 15.4393 14.0107 15.2571 13.9464C15.075 13.8786 14.9429 13.8464 14.8107 14.0464C14.6786 14.2464 14.3 14.6893 14.1821 14.825C14.0679 14.9571 13.95 14.975 13.7536 14.875C12.5893 14.2929 11.825 13.8357 11.0571 12.5179C10.8536 12.1679 11.2607 12.1929 11.6393 11.4357C11.7036 11.3036 11.6714 11.1893 11.6214 11.0893C11.5714 10.9893 11.175 10.0143 11.0107 9.61786C10.85 9.23214 10.6857 9.28571 10.5643 9.27857C10.45 9.27143 10.3179 9.27143 10.1857 9.27143C10.0536 9.27143 9.83929 9.32143 9.65714 9.51786C9.475 9.71786 8.96429 10.1964 8.96429 11.1714C8.96429 12.1464 9.675 13.0893 9.77143 13.2214C9.87143 13.3536 11.1679 15.3536 13.1571 16.2143C14.4143 16.7571 14.9071 16.8036 15.5357 16.7107C15.9179 16.6536 16.7071 16.2321 16.8714 15.7679C17.0357 15.3036 17.0357 14.9071 16.9857 14.825C16.9393 14.7357 16.8071 14.6857 16.6107 14.5893Z" fill="white"/>
</svg>
